<svg xmlns="http://www.w3.org/2000/svg" width="26" height="26" viewBox="0 0 26 26" fill="none">
  <path d="M12.5643 0C5.62539 0 0 5.62539 0 12.5643C0 19.5032 5.62539 25.1286 12.5643 25.1286C19.5032 25.1286 25.1286 19.5032 25.1286 12.5643C25.1286 5.62539 19.5032 0 12.5643 0ZM12.5643 22.8114C6.91398 22.8114 2.31711 18.2146 2.31711 12.5643C2.31711 6.91398 6.91325 2.31638 12.5643 2.31638C18.2153 2.31638 22.8114 6.91325 22.8114 12.5635C22.8114 18.2138 18.2146 22.8107 12.5643 22.8107V22.8114Z" fill="white"></path>
  <path d="M13.7437 11.3848H11.3849V13.7436H13.7437V11.3848Z" fill="white"></path>
  <path d="M13.7437 7.66113H11.3849V10.02H13.7437V7.66113Z" fill="white"></path>
  <path d="M13.7437 3.9375H11.3849V6.29637H13.7437V3.9375Z" fill="white"></path>
</svg>